/* XPM */
static char * pykaraoke_xpm[] = {
"32 32 403 2",
"  	c None",
". 	c #ACAEA7",
"+ 	c #A2A5A0",
"@ 	c #B2B5B4",
"# 	c #C2C6C4",
"$ 	c #CCCCC7",
"% 	c #E4E5E3",
"& 	c #87867E",
"* 	c #54524C",
"= 	c #625D59",
"- 	c #54504A",
"; 	c #4A4A44",
"> 	c #84807C",
", 	c #ADAFB0",
"' 	c #A0A19E",
") 	c #C2C1BD",
"! 	c #CFCCC5",
"~ 	c #F2F2F0",
"{ 	c #74746A",
"] 	c #53514B",
"^ 	c #3E3B36",
"/ 	c #38342F",
"( 	c #5C5651",
"_ 	c #403A31",
": 	c #64625A",
"< 	c #67635A",
"[ 	c #E2E1E6",
"} 	c #F4F7FC",
"| 	c #F2F4F8",
"1 	c #EFEDF1",
"2 	c #F3F3F4",
"3 	c #B8B8B4",
"4 	c #6C6864",
"5 	c #6C6760",
"6 	c #58544A",
"7 	c #403C31",
"8 	c #5E5748",
"9 	c #68624E",
"0 	c #443F39",
"a 	c #AAA49C",
"b 	c #FEFEFE",
"c 	c #FFFFFF",
"d 	c #FEFEFF",
"e 	c #FAF8FC",
"f 	c #F8F8FA",
"g 	c #FEFCFD",
"h 	c #B0ADAC",
"i 	c #64625C",
"j 	c #525149",
"k 	c #463F35",
"l 	c #373025",
"m 	c #6A6340",
"n 	c #58523A",
"o 	c #6F6A5A",
"p 	c #BAB7AF",
"q 	c #F4F6FA",
"r 	c #FAFAFE",
"s 	c #FBFAFC",
"t 	c #48423F",
"u 	c #3F3A36",
"v 	c #413A34",
"w 	c #241E19",
"x 	c #241F19",
"y 	c #1A1614",
"z 	c #211C17",
"A 	c #403C34",
"B 	c #7C7B73",
"C 	c #A8AAA4",
"D 	c #E5E7E4",
"E 	c #F2F6FA",
"F 	c #F6F5FA",
"G 	c #FCFCFC",
"H 	c #9D9B99",
"I 	c #3C3B32",
"J 	c #3A352F",
"K 	c #3B342F",
"L 	c #2F2B1E",
"M 	c #4C452E",
"N 	c #3F3C30",
"O 	c #726C61",
"P 	c #A8A3A2",
"Q 	c #A69EA4",
"R 	c #7A7272",
"S 	c #4F4642",
"T 	c #94918F",
"U 	c #F0F4F8",
"V 	c #D5D5D3",
"W 	c #F7F5F9",
"X 	c #FCFAFD",
"Y 	c #918F88",
"Z 	c #615C58",
"` 	c #4F4842",
" .	c #413832",
"..	c #40382C",
"+.	c #423A2E",
"@.	c #2F2924",
"#.	c #362F2D",
"$.	c #2F2B24",
"%.	c #595651",
"&.	c #767670",
"*.	c #B2B1AD",
"=.	c #F1F0F0",
"-.	c #E6E9EE",
";.	c #6D615D",
">.	c #7E786A",
",.	c #F3F2F4",
"'.	c #35302A",
").	c #1D1A14",
"!.	c #3A342F",
"~.	c #2A2621",
"{.	c #1C1A10",
"].	c #262217",
"^.	c #302C23",
"/.	c #625C4F",
"(.	c #ABABA6",
"_.	c #C9C5CA",
":.	c #A49FA6",
"<.	c #7E7878",
"[.	c #CFCECC",
"}.	c #D4D4D8",
"|.	c #9B9690",
"1.	c #CBC7C3",
"2.	c #77746E",
"3.	c #5F5B55",
"4.	c #544C44",
"5.	c #3D362E",
"6.	c #504936",
"7.	c #474134",
"8.	c #484138",
"9.	c #5F5853",
"0.	c #544F4C",
"a.	c #413B38",
"b.	c #53504A",
"c.	c #7D7C75",
"d.	c #F1F0F1",
"e.	c #E0DDE2",
"f.	c #9C8E8C",
"g.	c #978D83",
"h.	c #635F5D",
"i.	c #45413D",
"j.	c #413B33",
"k.	c #322E27",
"l.	c #16120D",
"m.	c #16130E",
"n.	c #252118",
"o.	c #48453C",
"p.	c #8E8E89",
"q.	c #B2B2B1",
"r.	c #C3C3C6",
"s.	c #B0AAAD",
"t.	c #E6E7E9",
"u.	c #A39F9E",
"v.	c #6C655A",
"w.	c #BFBDB8",
"x.	c #4A4841",
"y.	c #403C36",
"z.	c #443F36",
"A.	c #342E22",
"B.	c #4A452E",
"C.	c #3E3A2D",
"D.	c #5B5547",
"E.	c #8A847F",
"F.	c #9F959B",
"G.	c #6F6465",
"H.	c #514844",
"I.	c #706C68",
"J.	c #E2E2E7",
"K.	c #BEBDBE",
"L.	c #BAB2B2",
"M.	c #CCC9C4",
"N.	c #9C9A96",
"O.	c #65605E",
"P.	c #504D48",
"Q.	c #483F37",
"R.	c #312B24",
"S.	c #362E27",
"T.	c #26201C",
"U.	c #221D1A",
"V.	c #2D2923",
"W.	c #615E58",
"X.	c #7A7A77",
"Y.	c #A6A7A7",
"Z.	c #E7E5E4",
"`.	c #D7D9DF",
" +	c #918686",
".+	c #5E5044",
"++	c #C5C2BB",
"@+	c #C0BFBB",
"#+	c #29251F",
"$+	c #2B2722",
"%+	c #29231E",
"&+	c #201C14",
"*+	c #2E291B",
"=+	c #322E23",
"-+	c #565248",
";+	c #979594",
">+	c #C2BEC0",
",+	c #959094",
"'+	c #766E6E",
")+	c #AEABAA",
"!+	c #CFCDD2",
"~+	c #868079",
"{+	c #A7A39E",
"]+	c #D6D4D4",
"^+	c #8C8986",
"/+	c #504E48",
"(+	c #4A443F",
"_+	c #3F3730",
":+	c #453E2E",
"<+	c #443E31",
"[+	c #37322D",
"}+	c #46403C",
"|+	c #433C3D",
"1+	c #37312E",
"2+	c #4D4B48",
"3+	c #807C76",
"4+	c #E6E5E4",
"5+	c #D2CED2",
"6+	c #B3A7A5",
"7+	c #998D86",
"8+	c #85837F",
"9+	c #3A3430",
"0+	c #403A34",
"a+	c #24201D",
"b+	c #16120E",
"c+	c #191710",
"d+	c #23201A",
"e+	c #444036",
"f+	c #8D8E8B",
"g+	c #B1B1B0",
"h+	c #AFAEB4",
"i+	c #ACA5A8",
"j+	c #E7E5E6",
"k+	c #AFA7A9",
"l+	c #4D463B",
"m+	c #958F87",
"n+	c #5E5B57",
"o+	c #302C27",
"p+	c #504841",
"q+	c #322A22",
"r+	c #484230",
"s+	c #3F3A2D",
"t+	c #4B453E",
"u+	c #6A6461",
"v+	c #7F7A7C",
"w+	c #585152",
"x+	c #403A35",
"y+	c #5A534D",
"z+	c #E7E6E7",
"A+	c #BBB4B4",
"B+	c #B7B0AC",
"C+	c #BDB8B4",
"D+	c #A2A09A",
"E+	c #746F6C",
"F+	c #48433E",
"G+	c #4A423C",
"H+	c #2A241E",
"I+	c #332C24",
"J+	c #1F1A16",
"K+	c #1D1A15",
"L+	c #302E29",
"M+	c #6B6965",
"N+	c #7D8080",
"O+	c #A2A2A3",
"P+	c #DBD8D8",
"Q+	c #E5E5E8",
"R+	c #B0A6A6",
"S+	c #796D66",
"T+	c #888074",
"U+	c #686662",
"V+	c #5D5A56",
"W+	c #47443F",
"X+	c #463A32",
"Y+	c #483A2F",
"Z+	c #5D563C",
"`+	c #4C4638",
" @	c #655E54",
".@	c #999596",
"+@	c #ADA6AB",
"@@	c #7C757B",
"#@	c #6A6160",
"$@	c #94908E",
"%@	c #D9D9DD",
"&@	c #7E766F",
"*@	c #867F78",
"=@	c #C1C0BE",
"-@	c #5C5857",
";@	c #3C3834",
">@	c #26221F",
",@	c #2C2823",
"'@	c #3C342E",
")@	c #242019",
"!@	c #39342D",
"~@	c #423D35",
"{@	c #BEBFC0",
"]@	c #F0F2F5",
"^@	c #B5BCC5",
"/@	c #F7F8FA",
"(@	c #C9C7CC",
"_@	c #BBB0B2",
":@	c #9A908E",
"<@	c #D5D2D1",
"[@	c #484441",
"}@	c #322E2A",
"|@	c #36312C",
"1@	c #3C3530",
"2@	c #221D18",
"3@	c #393432",
"4@	c #2C2722",
"5@	c #B2B5BB",
"6@	c #AEB4BA",
"7@	c #AEB1B8",
"8@	c #FDFCFD",
"9@	c #F9F6F8",
"0@	c #BEBBC0",
"a@	c #CEC6C8",
"b@	c #B8B4B7",
"c@	c #CAC7CA",
"d@	c #736E6C",
"e@	c #47433E",
"f@	c #3B3632",
"g@	c #302A27",
"h@	c #635C58",
"i@	c #3B3535",
"j@	c #6C6A68",
"k@	c #8E8E92",
"l@	c #A6A2A8",
"m@	c #B8B3B7",
"n@	c #BBB6BA",
"o@	c #B1AFB4",
"p@	c #B2ADB2",
"q@	c #B4B0B2",
"r@	c #8A8583",
"s@	c #7A726E",
"t@	c #615857",
"u@	c #766F6C",
"v@	c #655F5F",
"w@	c #665F5A",
"x@	c #847E7A",
"y@	c #8A8381",
"z@	c #9A9698",
"A@	c #A29FA2",
"B@	c #B6B4B6",
"C@	c #D0CED0",
"D@	c #847F7C",
"E@	c #504844",
"F@	c #6C6660",
"G@	c #5D524D",
"H@	c #6E6562",
"I@	c #958E8E",
"J@	c #A9A4A7",
"K@	c #B6B4B7",
"L@	c #CFCDCF",
"M@	c #787370",
"N@	c #4E4742",
"O@	c #514B48",
"P@	c #534C46",
"Q@	c #867E7A",
"R@	c #BEBEC2",
"S@	c #BBBCC0",
"T@	c #B6B6BB",
"U@	c #767270",
"V@	c #403B37",
"W@	c #443F3B",
"X@	c #564F4A",
"Y@	c #938D8C",
"Z@	c #959698",
"`@	c #AEADB0",
" #	c #B2B1B5",
".#	c #615650",
"+#	c #3A322D",
"@#	c #3B342D",
"##	c #59544E",
"$#	c #5C5852",
"%#	c #C4BEBA",
"&#	c #8A8786",
"*#	c #ADAAA9",
"=#	c #887F7C",
"-#	c #4D433B",
";#	c #4A4138",
">#	c #49352C",
",#	c #48403A",
"'#	c #A19E9E",
")#	c #908E92",
"!#	c #BAB5B6",
"~#	c #746C68",
"{#	c #4B3C34",
"]#	c #605A5A",
"^#	c #4C453F",
"/#	c #776F6A",
"(#	c #A8A6A6",
"_#	c #C9C7C5",
":#	c #635951",
"<#	c #4F4039",
"[#	c #9C989A",
"}#	c #868487",
"|#	c #A5A2A1",
"1#	c #646160",
"2#	c #1E1915",
"3#	c #29211C",
"4#	c #85878B",
"5#	c #9FA0A4",
"6#	c #A7A6A8",
"                                                                ",
"                          . + @ # $ %                           ",
"                      & * = - ; > , ' ) ! ~                     ",
"                    { ] ^ / ( _ : < [ } | 1 2                   ",
"                  3 4 5 6 7 8 9 0 a b c d e f g                 ",
"                  h i j k l m n o p c c c d q r s               ",
"                    t u v w x y z A B C D b E r F G             ",
"                  H I J K L M N O P Q R S T U V W X             ",
"                  Y Z `  ...+.@.#.$.%.&.*.=.-.;.>.,.            ",
"                  '.).!.~.{.].^./.(._.:.<.[.}.|.1.              ",
"                  2.3.4.5.6.7.8.9.0.a.b.c.d.e.f.g.              ",
"                  h.i.j.k.l.m.n.o.p.q.r.s.t.u.v.w.              ",
"                  x.y.z.A.B.C.D.E.F.G.H.I.J.K.L.M.              ",
"                N.O.P.Q.R.S.T.U.V.W.X.Y.Z.`. +.+++              ",
"                @+#+$+%+&+*+=+-+;+>+,+'+)+!+~+{+]+              ",
"                ^+/+(+_+:+<+[+}+|+1+2+3+4+5+6+7+                ",
"                8+9+0+a+b+c+d+e+f+g+h+i+j+k+l+m+                ",
"                n+o+p+q+r+s+t+u+v+w+x+y+z+A+B+C+                ",
"              D+E+F+G+H+I+J+K+L+M+N+O+P+Q+R+S+T+                ",
"              U+V+W+X+Y+Z+`+ @.@+@@@#@$@%@&@*@=@                ",
"              -@;@>@,@'@)@!@~@{@]@^@/@c (@_@:@<@                ",
"                [@}@|@1@2@3@4@5@6@7@8@9@0@a@b@c@                ",
"                  d@e@f@g@h@i@j@k@l@m@n@o@p@q@                  ",
"                      r@s@t@u@v@w@x@y@z@A@B@C@                  ",
"                        D@E@F@G@H@I@J@K@L@                      ",
"                        M@N@O@P@Q@R@S@T@                        ",
"                        U@V@W@X@Y@Z@`@ #                        ",
"                        .#+#@###$#%#&#*#                        ",
"                        =#-#;#>#,#'#)#!#                        ",
"                          ~#{#]#^#/#(#                          ",
"                        _#:#<#[#}#|#                            ",
"                        1#2#3#4#5#6#                            "};
